<svg xmlns="http://www.w3.org/2000/svg" fill="none" viewBox="0 0 64 64"><g><path fill="#fff" d="M0 0h64v64H0z"/><path fill="#319F7A" d="M64 0H0v64h64V0z"/><path fill="#FBBB97" d="M48.05 30.56H37.68v18.42h10.37V30.56z"/><path fill="#9B421D" d="M44.42 36.84a12.43 12.43 0 1 0 0-24.86 12.43 12.43 0 0 0 0 24.86z"/><path fill="#FBBB97" d="M48.84 41.2H37.68V22.8h17.2v12.37a6.05 6.05 0 0 1-6.04 6.05z"/><path fill="#9B421D" d="M50.31 20.06c.66 3.44-2.1 6.86-6.17 7.64-4.06.78-7.9-1.38-8.55-4.82l14.72-2.82z"/><path fill="#FBBB97" d="M38.62 30.57a2.36 2.36 0 1 0 0-4.72 2.36 2.36 0 0 0 0 4.71z"/><path fill="#9B421D" d="m56.82 23.5-10.4-7.06c-1.96 2.9-.78 7.13 2.65 9.45 2.45 1.66 5.37 1.9 7.56.84a12.31 12.31 0 0 0 .19-3.24z"/><path fill="#133B65" d="M58.9 64H5.1l.5-5.24a9.9 9.9 0 0 1 9.9-9.9h33a9.9 9.9 0 0 1 9.9 9.9l.5 5.24z"/><path fill="#1F1919" d="M33.43 43.92h-22.8V25.71h27.2v13.81a4.4 4.4 0 0 1-4.4 4.4z"/><path fill="#1F1919" d="M24.22 39.25a13.6 13.6 0 1 0 0-27.2 13.6 13.6 0 0 0 0 27.2z"/><path fill="#C47243" d="M28.61 41.2H17.46V22.8h17.2v12.37a6.05 6.05 0 0 1-6.05 6.05z"/><path fill="#C47243" d="M27.83 30.56H17.46v18.42h10.37V30.56z"/><path fill="#1F1919" d="M35 19.03c.87 4.58-2.81 9.13-8.23 10.17-5.41 1.03-10.51-1.84-11.39-6.42L35 19.03z"/><path fill="#1F1919" d="M17.71 43.92h-3.36V22.58h7.21v17.49a3.85 3.85 0 0 1-3.85 3.85z"/><path fill="#EE7A46" d="M21 31.79a3.07 3.07 0 1 0 0-6.14 3.07 3.07 0 0 0 0 6.14z"/><path fill="#14684B" d="M40.74 64H5.1l.5-5.24a9.9 9.9 0 0 1 9.9-9.9h14.84a9.9 9.9 0 0 1 9.9 9.9l.5 5.24z"/><path fill="#133B65" d="M29.58 48.84h-1.57l.76 7.72H16.6l.76-7.72H15.8L13.8 64h17.79l-2-15.16z"/><path fill="#319F7A" d="M48.47 62.45h-.72a2.58 2.58 0 0 1-2.58-2.58V55.8h5.88v4.08a2.58 2.58 0 0 1-2.58 2.58z"/></g></svg>
