<svg xmlns="http://www.w3.org/2000/svg" fill="none" viewBox="0 0 64 64"><path fill="#96CBCC" d="M64 0H0v64h64V0z"/><path fill="#094C61" d="M44.65 55.23h-34.2V12.89c0-1.22.99-2.21 2.21-2.21h29.77c1.22 0 2.21.99 2.21 2.21v42.34h.01z"/><path fill="#FFE9C9" d="M27.1 44.2h-.07v.05l.07-.05z"/><path fill="#96CBCC" d="M42.6 22.75H12.5v30.1h30.1v-30.1z"/><path fill="#2C5F70" d="M21.44 40.07c2.45-1.68 5.23-3.58 5.23-7.19 0-2.81-1.94-5.83-6.19-5.83a6.96 6.96 0 0 0-5.96 3.54l-.48.92 2.66 1.82.64-1.06c.05-.08 1.13-1.85 3.12-1.85 1.7 0 2.79.97 2.79 2.48 0 1.87-1.76 3.07-3.79 4.46-2.47 1.69-5.27 3.6-5.27 7.27 0 .34.03.7.09 1.07l.15.99h12.51v-3.3h-9.05c.55-1.27 1.97-2.23 3.55-3.32zm13.47-13.01c-6 0-6.9 6.24-6.9 9.96 0 8.23 3.75 9.96 6.9 9.96 3.15 0 6.9-1.73 6.9-9.96-.01-3.72-.9-9.96-6.9-9.96zm0 16.56c-1.62 0-3.47-.75-3.47-6.61s1.86-6.61 3.47-6.61c1.62 0 3.47.75 3.47 6.61s-1.85 6.61-3.47 6.61z" opacity=".75"/><path fill="#fff" d="M53.52 34.04c-.88 0-1.59-.7-1.59-1.59v-1.99h-9.57v1.99c0 .88-.71 1.59-1.59 1.59a2.53 2.53 0 0 0-2.53 2.53v16.55c0 1.16.94 2.11 2.11 2.11h13.59c1.16 0 2.11-.94 2.11-2.11V36.57c0-1.4-1.13-2.53-2.53-2.53z"/><path fill="#AAE5EE" d="M51.76 30.85h-9.23a.84.84 0 0 1-.84-.84v-.32H52.6V30c0 .47-.38.85-.84.85z"/><path fill="#F6735C" d="M54.06 29.73H40.23a.42.42 0 0 1-.42-.42v-4.07c0-.47.38-.84.84-.84h12.99c.47 0 .84.38.84.84v4.07c0 .23-.19.42-.42.42z"/><path fill="#1B7894" d="M56.06 37.01H43.23v15.85h12.83V37.01z"/><path fill="#094C61" d="M45.99 37.01h-2.76v15.85h2.76V37.01z"/><path fill="#fff" d="M26.99 55.23h7.12V44.7h-7.12a5.27 5.27 0 0 0 0 10.53z"/><path fill="#F6735C" d="M40.11 55.23h-7.09V44.7h7.09a5.27 5.27 0 0 1 0 10.53z"/></svg>