<svg xmlns="http://www.w3.org/2000/svg" fill="none" viewBox="0 0 64 64"><path fill="#fff" d="M0 0h64v64H0z"/><path fill="#D45131" d="M64 0H0v64h64V0z"/><path fill="#2D5265" d="M37.92 29.03a9.15 9.15 0 1 0 0-18.3 9.15 9.15 0 0 0 0 18.3z"/><path fill="#FFD2BD" d="M45.3 32.23h-9.68v20.66h9.68V32.23z"/><path fill="#FFD2BD" d="m54.07 33.91-1.1-15.74H35.62v26h9.67V39.8l5.42-1.3a4.4 4.4 0 0 0 3.36-4.6z"/><path fill="#2D5265" d="M45.02 28.84a9.15 9.15 0 1 0 0-18.3 9.15 9.15 0 0 0 0 18.3z"/><path fill="#2D5265" d="M36.52 36.98h-4.2V16.05h9.1v16.04a4.9 4.9 0 0 1-4.9 4.9z"/><path fill="#FFD2BD" d="M42.46 31.35a2.46 2.46 0 1 0 0-4.92 2.46 2.46 0 0 0 0 4.92z"/><path fill="#fff" d="M42.46 31.3a1.02 1.02 0 1 0 0-2.05 1.02 1.02 0 0 0 0 2.05z"/><path fill="#EFA990" d="m38.48 33.62-.9-12.37c-.26-3.66-3.3-8.22-6.97-8.22h-7.72c-2.77 0-4.1 3.96-4.1 6.72v23.6h10.64v-9.73h9.05z"/><path fill="#fff" d="m38.79 37.27-.3-3.65h-9.05v9.73h3.76a5.62 5.62 0 0 0 5.59-6.08z"/><path fill="#EFA990" d="M22.89 13.03a8.16 8.16 0 0 0-6.82 3.67H29.7a8.16 8.16 0 0 0-6.81-3.67z"/><path fill="#FBBB97" d="M22.89 29.35c1.53 0 2.96-.43 4.18-1.17h-8.36a8.1 8.1 0 0 0 4.18 1.17z"/><path fill="#fff" d="M31.05 21.19c0-1.66-.5-3.2-1.34-4.49H16.07a8.15 8.15 0 0 0 2.63 11.48h8.37a8.15 8.15 0 0 0 3.98-6.99z"/><path fill="#E97C61" d="m61.13 63.91-2.92-7.12a13.95 13.95 0 0 0-3.46-5.03 11.3 11.3 0 0 0-7.62-3.05H34.07c-2.77 0-5.45 1.07-7.62 3.05a13.85 13.85 0 0 0-3.47 5.03l-2.91 7.13h41.06z"/><path fill="#EFA990" d="M29.45 31.41H18.79v20.67h10.66V31.4z"/><path fill="#fff" d="M19.93 34.87h-1.14V20.75H24v9.07c0 2.8-1.29 5.05-4.07 5.05z"/><path fill="#fff" d="m32.93 38.57-8.36-20.79-2.76 1.11 8.36 20.79 2.76-1.11z"/><path fill="#EFA990" d="M23.97 31.01a2.68 2.68 0 1 0 0-5.36 2.68 2.68 0 0 0 0 5.36z"/><path fill="#fff" d="M39.14 33.72h-5l1.06-2.19a2.24 2.24 0 0 1 2.02-1.26h.24c.93 0 1.69.76 1.69 1.69v1.76z"/><path fill="#8A2B15" d="M29.9 44.71H18.4v7.03h11.5v-7.03z"/><path fill="#fff" d="M45.2 50.46a1.37 1.37 0 1 0 0-2.75 1.37 1.37 0 0 0 0 2.75z"/><path fill="#fff" d="M42.67 50.46a1.37 1.37 0 1 0 0-2.75 1.37 1.37 0 0 0 0 2.75z"/><path fill="#fff" d="M40.14 50.46a1.37 1.37 0 1 0 0-2.75 1.37 1.37 0 0 0 0 2.75z"/><path fill="#fff" d="M37.6 50.46a1.37 1.37 0 1 0 0-2.75 1.37 1.37 0 0 0 0 2.75z"/><path fill="#fff" d="M35.08 50.46a1.37 1.37 0 1 0 0-2.75 1.37 1.37 0 0 0 0 2.75z"/><path fill="#8A2B15" d="m44.29 63.91-2.92-7.12a13.95 13.95 0 0 0-3.46-5.03 11.3 11.3 0 0 0-7.62-3.05H17.23c-2.77 0-5.45 1.07-7.62 3.05a13.85 13.85 0 0 0-3.47 5.03l-2.91 7.13h41.06z"/><path fill="#fff" d="M22.55 24.14H18.8v-4.89c0-1.1.9-2 2-2h8.65c0 3.8-3.09 6.89-6.89 6.89z"/></svg>