<svg xmlns="http://www.w3.org/2000/svg" fill="none" viewBox="0 0 64 64">
  <path fill="#00A99C" d="M64 0H0v64h64V0z"/>
  <path fill="#066" d="M45.77 40.84H18.3v6.27h27.47v-6.27zM8.11 34.63h4.87v18.7H8.11a1.4 1.4 0 01-1.4-1.4v-15.9c0-.77.63-1.4 1.4-1.4z"/>
  <path fill="#65D4CB" d="M12.73 31.5h6.5v24.95h-6.5a1.88 1.88 0 01-1.87-1.87V33.37c0-1.03.84-1.87 1.87-1.87z"/>
  <path fill="#066" d="M55.88 34.63h-4.86v18.7h4.86c.78 0 1.41-.63 1.41-1.4v-15.9c0-.77-.63-1.4-1.4-1.4z"/>
  <path fill="#65D4CB" d="M51.27 31.5h-6.5v24.95h6.49c1.04 0 1.88-.84 1.88-1.87V33.37c0-1.03-.84-1.87-1.88-1.87z"/>
  <path fill="#fff" d="M34.68 14.05h-5.36V20h5.36v-5.95z"/>
  <path fill="#fff" d="M35.11 15.31h-6.22a.57.57 0 01-.57-.56v-1.43h7.36v1.43c0 .3-.26.56-.57.56z"/>
  <path fill="#A56D17" d="M36.51 13.84h-9.03v-2.32c0-.31.26-.57.57-.57h7.9c.31 0 .57.26.57.57v2.32z"/>
  <path fill="#fff" d="M39.62 23.27a7.72 7.72 0 00-15.35.93v30.28c0 1.09.89 1.97 1.98 1.97h11.5c1.1 0 1.98-.89 1.98-1.98V24.21c0-.32-.04-.64-.1-.95z"/>
  <path fill="#FEBC4D" d="M37.22 28.22H24.27v12.62h15.46V28.22h-2.51z"/>
</svg>
