<svg xmlns="http://www.w3.org/2000/svg" fill="none" viewBox="0 0 64 64"><g><path fill="#fff" d="M0 0h64v64H0z"/><path fill="#458AD1" d="M64 0H0v64h64V0z"/><path fill="#08396B" d="M53.37 53.52c-2.12-3.65-6.42-6.1-11.32-6.48l-.35-.03-8.42-.64c-.85-.06-1.71-.06-2.57 0l-7.3.56-1.46.11c-4.9.37-9.2 2.83-11.32 6.48L5.14 64h53.73l-5.5-10.48z"/><path fill="#28527B" d="m22.58 46.98-2.51.74-2.32 16.26 8.37-.05-3.54-16.95zm19.02 0 2.51.74 2.33 16.26-8.37-.05 3.53-16.95z"/><path fill="#A56315" d="m36 48.52 13.14.02-4.95-28.29-5.56-1.89-5.94 8.33 2.09 21.78"/><path fill="#A56315" d="M31.2 38.35c7.58 0 13.72-6.19 13.72-13.83 0-7.63-6.14-13.83-13.71-13.83-7.58 0-13.71 6.2-13.71 13.83 0 7.64 6.13 13.83 13.7 13.83z"/><path fill="#FFB681" d="m43.09 22.12-1.25 14.23c-.13 1.44-.91 2.66-2.02 3.15l-3.07 1.36-2.9.45-5.45-14.14-.42-3.43 13.17-4.71 1.94 3.09z"/><path fill="#FFB681" d="M31.9 53.37a4.9 4.9 0 0 1-4.9-4.9V21.76h9.81v26.71a4.9 4.9 0 0 1-4.9 4.9z"/><path fill="#A56315" d="m44.8 23.47-17.76 5.15 4.66 20.07H18.4a7.16 7.16 0 0 1-6.71-9.52l6.47-18.81 14.36-7.5 5.95 2.83 2.98 2.34 3.35 5.44z"/><path fill="#FFB681" d="M27.02 33.6c1.3 0 2.36-1.1 2.36-2.46a2.41 2.41 0 0 0-2.36-2.45c-1.3 0-2.37 1.1-2.37 2.45a2.41 2.41 0 0 0 2.37 2.46z"/><path fill="#fff" d="M14.76 26.2C.9 25.97.9 5.36 14.77 5.1c13.86.25 13.86 20.86 0 21.1zm0-18.6c-10.53.06-10.52 16.05 0 16.1 10.53-.05 10.53-16.04 0-16.1z"/><path fill="#fff" d="M16.01 25.77h-2.5V39.6h2.5V25.77z"/><path fill="#fff" d="M19.73 32.65H9.8v2.5h9.93v-2.5z"/></g></svg>
